<svg width="96" height="224" viewBox="0 0 96 224" fill="none" xmlns="http://www.w3.org/2000/svg">
<g id="misc-building-3">
<g id="Clip path group">
<mask id="mask0_2002_2911" style="mask-type:luminance" maskUnits="userSpaceOnUse" x="0" y="0" width="96" height="224">
<g id="4c67c993d1">
<path id="Vector" d="M0 0H96V224H0V0Z" fill="white"/>
</g>
</mask>
<g mask="url(#mask0_2002_2911)">
<g id="Group">
<g id="Clip path group_2">
<mask id="mask1_2002_2911" style="mask-type:luminance" maskUnits="userSpaceOnUse" x="-1" y="-1" width="98" height="226">
<g id="8f10967227">
<path id="Vector_2" d="M61.7083 224.135L-0.848999 213.984L33.9948 -0.708496L96.552 9.44775L61.7083 224.135Z" fill="white"/>
</g>
</mask>
<g mask="url(#mask1_2002_2911)">
<g id="Group_2">
<g id="Clip path group_3">
<mask id="mask2_2002_2911" style="mask-type:luminance" maskUnits="userSpaceOnUse" x="0" y="0" width="96" height="223">
<g id="c6a54eebce">
<path id="Vector_3" d="M54.5937 222.729L6.09894 214.859C4.27082 214.562 2.63019 213.552 1.54165 212.042C0.458316 210.536 0.015608 208.661 0.312483 206.828L32.8437 6.39579C33.1406 4.56246 34.151 2.92184 35.6562 1.8385C37.1666 0.749962 39.0416 0.307254 40.875 0.609336L89.3646 8.47913C91.1979 8.776 92.8385 9.78642 93.9219 11.2916C95.0104 12.802 95.4531 14.677 95.1562 16.5104L62.625 216.943C62.3281 218.776 61.3177 220.417 59.8073 221.5C58.3021 222.583 56.4271 223.026 54.5937 222.729Z" fill="white"/>
</g>
</mask>
<g mask="url(#mask2_2002_2911)">
<g id="Group_3">
<g id="Group_4">
<g id="Clip path group_4">
<mask id="mask3_2002_2911" style="mask-type:luminance" maskUnits="userSpaceOnUse" x="0" y="0" width="96" height="224">
<g id="373f4c5be8">
<path id="Vector_4" d="M96 0H0V224H96V0Z" fill="white"/>
</g>
</mask>
<g mask="url(#mask3_2002_2911)">
<g id="Group_5">
<g id="Clip path group_5">
<mask id="mask4_2002_2911" style="mask-type:luminance" maskUnits="userSpaceOnUse" x="0" y="0" width="96" height="224">
<g id="98db2090d1">
<path id="Vector_5" d="M0 0.265625H95.7344V223.307H0V0.265625Z" fill="white"/>
</g>
</mask>
<g mask="url(#mask4_2002_2911)">
<g id="Group_6">
<g id="Clip path group_6">
<mask id="mask5_2002_2911" style="mask-type:luminance" maskUnits="userSpaceOnUse" x="-1" y="-1" width="98" height="226">
<g id="46fb6848e2">
<path id="Vector_6" d="M61.7083 224.135L-0.848999 213.984L33.9948 -0.708496L96.552 9.44775L61.7083 224.135Z" fill="white"/>
</g>
</mask>
<g mask="url(#mask5_2002_2911)">
<g id="Group_7">
<g id="Clip path group_7">
<mask id="mask6_2002_2911" style="mask-type:luminance" maskUnits="userSpaceOnUse" x="0" y="0" width="96" height="223">
<g id="73d98b5185">
<path id="Vector_7" d="M54.5937 222.729L6.09894 214.859C4.27082 214.562 2.63019 213.552 1.54165 212.042C0.458316 210.536 0.0156078 208.661 0.312483 206.828L32.8437 6.3958C33.1406 4.56246 34.151 2.92184 35.6562 1.8385C37.1666 0.749962 39.0416 0.307254 40.875 0.609336L89.3646 8.47913C91.1979 8.776 92.8385 9.78642 93.9219 11.2916C95.0104 12.802 95.4531 14.677 95.1562 16.5104L62.625 216.943C62.3281 218.776 61.3177 220.417 59.8073 221.5C58.3021 222.583 56.4271 223.026 54.5937 222.729Z" fill="white"/>
</g>
</mask>
<g mask="url(#mask6_2002_2911)">
<g id="Group_8">
<path id="Vector_8" d="M61.5051 223.854L-0.807373 213.74L33.953 -0.463379L96.2708 9.6512L61.5051 223.854Z" fill="#1F4073"/>
</g>
</g>
</g>
</g>
</g>
</g>
</g>
</g>
</g>
</g>
</g>
</g>
</g>
</g>
</g>
</g>
</g>
</g>
</g>
</g>
</g>
</g>
<g id="Clip path group_8">
<mask id="mask7_2002_2911" style="mask-type:luminance" maskUnits="userSpaceOnUse" x="0" y="0" width="96" height="224">
<g id="13ae588615">
<path id="Vector_9" d="M0 0H96V224H0V0Z" fill="white"/>
</g>
</mask>
<g mask="url(#mask7_2002_2911)">
<g id="Group_9">
<g id="Clip path group_9">
<mask id="mask8_2002_2911" style="mask-type:luminance" maskUnits="userSpaceOnUse" x="-2" y="-1" width="99" height="225">
<g id="830e3c02f6">
<path id="Vector_10" d="M61.5052 223.854L-1.026 213.703L33.698 -0.275879L96.2344 9.87516L61.5052 223.854Z" fill="white"/>
</g>
</mask>
<g mask="url(#mask8_2002_2911)">
<g id="Group_10">
<g id="Clip path group_10">
<mask id="mask9_2002_2911" style="mask-type:luminance" maskUnits="userSpaceOnUse" x="-4" y="-5" width="101" height="229">
<g id="91d6c4a420">
<path id="Vector_11" d="M61.5052 223.844L-3.72913 213.255L31.5625 -4.19775L96.7969 6.39079L61.5052 223.844Z" fill="white"/>
</g>
</mask>
<g mask="url(#mask9_2002_2911)">
<g id="Group_11">
<g id="Clip path group_11">
<mask id="mask10_2002_2911" style="mask-type:luminance" maskUnits="userSpaceOnUse" x="0" y="0" width="96" height="223">
<g id="c4ef1b6844">
<path id="Vector_12" d="M54.599 222.724L6.10944 214.854C4.28132 214.557 2.64069 213.542 1.55215 212.036C0.468815 210.531 0.0261052 208.656 0.322981 206.823L32.849 6.42185C33.1459 4.58852 34.1563 2.9479 35.6615 1.86456C37.1719 0.77602 39.0469 0.333313 40.8751 0.630188L89.3646 8.49998C91.198 8.79685 92.8334 9.81248 93.9219 11.3177C95.0053 12.8229 95.448 14.6979 95.1511 16.5312L62.6303 216.932C62.3282 218.766 61.3178 220.406 59.8126 221.49C58.3074 222.578 56.4324 223.021 54.599 222.724Z" fill="white"/>
</g>
</mask>
<g mask="url(#mask10_2002_2911)">
<g id="Group_12">
<path id="Vector_13" d="M54.599 222.724L6.10937 214.854C4.28124 214.557 2.64062 213.542 1.55207 212.036C0.46874 210.531 0.0260283 208.656 0.322903 206.823L32.8489 6.42175C33.1458 4.58841 34.1562 2.94779 35.6614 1.86446C37.1718 0.775918 39.0468 0.333205 40.875 0.630079L89.3646 8.49986C91.1979 8.79673 92.8333 9.81236 93.9219 11.3176C95.0052 12.8228 95.4479 14.6978 95.151 16.5311L62.6302 216.932C62.3281 218.766 61.3177 220.406 59.8125 221.49C58.3073 222.578 56.4323 223.021 54.599 222.724Z" stroke="#122C55" stroke-width="8"/>
</g>
</g>
</g>
</g>
</g>
</g>
</g>
</g>
</g>
</g>
</g>
</g>
<g id="Group 28">
<g id="Clip path group_12">
<mask id="mask11_2002_2911" style="mask-type:luminance" maskUnits="userSpaceOnUse" x="22" y="82" width="52" height="54">
<g id="56f17b3a80">
<path id="Vector_14" d="M22 82H73.8569V136H22V82Z" fill="white"/>
</g>
</mask>
<g mask="url(#mask11_2002_2911)">
<g id="Group_13">
<g id="Clip path group_13">
<mask id="mask12_2002_2911" style="mask-type:luminance" maskUnits="userSpaceOnUse" x="22" y="82" width="52" height="54">
<g id="1ed0940b6f">
<path id="Vector_15" d="M47.9285 82C33.6101 82 22 94.0436 22 108.902C22 123.76 33.6101 135.804 47.9285 135.804C62.2469 135.804 73.8569 123.76 73.8569 108.902C73.8569 94.0436 62.2469 82 47.9285 82Z" fill="white"/>
</g>
</mask>
<g mask="url(#mask12_2002_2911)">
<g id="Group_14">
<g id="Group_15">
<g id="Clip path group_14">
<mask id="mask13_2002_2911" style="mask-type:luminance" maskUnits="userSpaceOnUse" x="21" y="80" width="55" height="57">
<g id="20c3f9d9d6">
<path id="Vector_16" d="M75.0424 80.897H21.4072V136.535H75.0424V80.897Z" fill="white"/>
</g>
</mask>
<g mask="url(#mask13_2002_2911)">
<g id="Group_16">
<g id="Clip path group_15">
<mask id="mask14_2002_2911" style="mask-type:luminance" maskUnits="userSpaceOnUse" x="22" y="82" width="52" height="54">
<g id="c3b03420bc">
<path id="Vector_17" d="M22 82H73.8569V135.83H22V82Z" fill="white"/>
</g>
</mask>
<g mask="url(#mask14_2002_2911)">
<g id="Group_17">
<g id="Clip path group_16">
<mask id="mask15_2002_2911" style="mask-type:luminance" maskUnits="userSpaceOnUse" x="22" y="82" width="52" height="54">
<g id="cc87294842">
<path id="Vector_18" d="M47.9285 82C33.6101 82 22 94.0436 22 108.902C22 123.76 33.6101 135.804 47.9285 135.804C62.2469 135.804 73.8569 123.76 73.8569 108.902C73.8569 94.0436 62.2469 82 47.9285 82Z" fill="white"/>
</g>
</mask>
<g mask="url(#mask15_2002_2911)">
<g id="Group_18">
<path id="Vector_19" d="M22 82H73.8569V135.793H22V82Z" fill="#2D60B2"/>
</g>
</g>
</g>
</g>
</g>
</g>
</g>
</g>
</g>
</g>
</g>
</g>
</g>
</g>
</g>
</g>
<g id="Clip path group_17">
<mask id="mask16_2002_2911" style="mask-type:luminance" maskUnits="userSpaceOnUse" x="22" y="82" width="52" height="54">
<g id="9172c83157">
<path id="Vector_20" d="M22 82H74V135.942H22V82Z" fill="white"/>
</g>
</mask>
<g mask="url(#mask16_2002_2911)">
<g id="Group_19">
<g id="Clip path group_18">
<mask id="mask17_2002_2911" style="mask-type:luminance" maskUnits="userSpaceOnUse" x="22" y="82" width="52" height="54">
<g id="57bf6a74bd">
<path id="Vector_21" d="M47.9234 82C33.6101 82 22 94.0436 22 108.902C22 123.755 33.6101 135.799 47.9234 135.799C62.2417 135.799 73.8467 123.755 73.8467 108.902C73.8467 94.0436 62.2417 82 47.9234 82Z" fill="white"/>
</g>
</mask>
<g mask="url(#mask17_2002_2911)">
<g id="Group_20">
<path id="Vector_22" d="M47.9234 82C33.6101 82 22 94.0436 22 108.902C22 123.755 33.6101 135.799 47.9234 135.799C62.2418 135.799 73.8467 123.755 73.8467 108.902C73.8467 94.0436 62.2418 82 47.9234 82Z" stroke="white" stroke-width="8"/>
</g>
</g>
</g>
</g>
</g>
</g>
<g id="Group_21">
<g id="Group_22">
<g id="Group_23">
<path id="Vector_23" d="M39.5295 113.551V111.113H40.9194V104.391H39.1002V102.695L42.2889 101.932H44.7008V111.113H45.9273V113.551H39.5295Z" fill="white"/>
</g>
</g>
</g>
<g id="Group_24">
<g id="Group_25">
<g id="Group_26">
<path id="Vector_24" d="M51.6755 113.764C50.0505 113.764 48.7985 113.292 47.9145 112.343C47.0407 111.384 46.6063 109.852 46.6063 107.742C46.6063 105.653 47.0407 104.127 47.9145 103.162C48.7985 102.203 50.0505 101.72 51.6755 101.72C53.2954 101.72 54.5423 102.203 55.4161 103.162C56.2848 104.127 56.7242 105.653 56.7242 107.742C56.7242 109.682 56.3154 111.172 55.4978 112.216C54.6904 113.25 53.418 113.764 51.6755 113.764ZM51.6755 111.113C52.3296 111.113 52.6566 110.742 52.6566 109.99V105.494C52.6566 104.763 52.3296 104.392 51.6755 104.392C51.0214 104.392 50.6944 104.763 50.6944 105.494V109.99C50.6944 110.742 51.0214 111.113 51.6755 111.113Z" fill="white"/>
</g>
</g>
</g>
</g>
</g>
</svg>
