<svg width="294" height="321" viewBox="0 0 294 321" fill="none" xmlns="http://www.w3.org/2000/svg">
<g id="SB2-204">
<g id="Clip path group">
<mask id="mask0_2082_37" style="mask-type:luminance" maskUnits="userSpaceOnUse" x="0" y="0" width="294" height="321">
<g id="d30b8a934c">
<path id="Vector" d="M0 0H293.266V320.385H0V0Z" fill="white"/>
</g>
</mask>
<g mask="url(#mask0_2082_37)">
<g id="Group">
<g id="Clip path group_2">
<mask id="mask1_2082_37" style="mask-type:luminance" maskUnits="userSpaceOnUse" x="0" y="0" width="294" height="321">
<g id="f77909e06e">
<path id="Vector_2" d="M7 0H286.266C290.135 0 293.266 3.13021 293.266 7V313.24C293.266 317.104 290.135 320.24 286.266 320.24H7C3.13021 320.24 0 317.104 0 313.24V7C0 3.13021 3.13021 0 7 0Z" fill="white"/>
</g>
</mask>
<g mask="url(#mask1_2082_37)">
<g id="Group_2">
<g id="Group_3">
<g id="Clip path group_3">
<mask id="mask2_2082_37" style="mask-type:luminance" maskUnits="userSpaceOnUse" x="-1" y="-1" width="295" height="322">
<g id="7303aee1c5">
<path id="Vector_3" d="M293.318 -0.947998H-0.015625V320.385H293.318V-0.947998Z" fill="white"/>
</g>
</mask>
<g mask="url(#mask2_2082_37)">
<g id="Group_4">
<g id="Clip path group_4">
<mask id="mask3_2082_37" style="mask-type:luminance" maskUnits="userSpaceOnUse" x="0" y="0" width="294" height="321">
<g id="dbd3947ef2">
<path id="Vector_4" d="M0 0H293.266V320.385H0V0Z" fill="white"/>
</g>
</mask>
<g mask="url(#mask3_2082_37)">
<g id="Group_5">
<g id="Clip path group_5">
<mask id="mask4_2082_37" style="mask-type:luminance" maskUnits="userSpaceOnUse" x="0" y="0" width="294" height="321">
<g id="c1895b4616">
<path id="Vector_5" d="M7 0H286.266C290.135 0 293.266 3.13021 293.266 7V313.24C293.266 317.104 290.135 320.24 286.266 320.24H7C3.13021 320.24 0 317.104 0 313.24V7C0 3.13021 3.13021 0 7 0Z" fill="white"/>
</g>
</mask>
<g mask="url(#mask4_2082_37)">
<g id="Group_6">
<path id="Vector_6" d="M0 0H293.266V320.76H0V0Z" fill="#4A6FB1"/>
</g>
</g>
</g>
</g>
</g>
</g>
</g>
</g>
</g>
</g>
</g>
</g>
</g>
</g>
</g>
</g>
<g id="Clip path group_6">
<mask id="mask5_2082_37" style="mask-type:luminance" maskUnits="userSpaceOnUse" x="0" y="0" width="293" height="320">
<g id="624586fc67">
<path id="Vector_7" d="M0 0H293V320H0V0Z" fill="white"/>
</g>
</mask>
<g mask="url(#mask5_2082_37)">
<g id="Group_7">
<g id="Clip path group_7">
<mask id="mask6_2082_37" style="mask-type:luminance" maskUnits="userSpaceOnUse" x="0" y="0" width="294" height="321">
<g id="a8649e7513">
<path id="Vector_8" d="M7 0H286.266C290.13 0 293.266 3.13021 293.266 7V313.234C293.266 317.099 290.13 320.234 286.266 320.234H7C3.13021 320.234 0 317.099 0 313.234V7C0 3.13021 3.13021 0 7 0Z" fill="white"/>
</g>
</mask>
<g mask="url(#mask6_2082_37)">
<g id="Group_8">
<path id="Vector_9" d="M7 0H286.266C290.13 0 293.266 3.13021 293.266 7V313.234C293.266 317.099 290.13 320.234 286.266 320.234H7C3.13021 320.234 0 317.099 0 313.234V7C0 3.13021 3.13021 0 7 0Z" stroke="#122C55" stroke-width="8"/>
</g>
</g>
</g>
</g>
</g>
</g>
<g id="Clip path group_8">
<mask id="mask7_2082_37" style="mask-type:luminance" maskUnits="userSpaceOnUse" x="203" y="307" width="77" height="14">
<g id="24aeceecc1">
<path id="Vector_10" d="M203.506 307.042H279.803V320.239H203.506V307.042Z" fill="white"/>
</g>
</mask>
<g mask="url(#mask7_2082_37)">
<g id="Group_9">
<g id="Clip path group_9">
<mask id="mask8_2082_37" style="mask-type:luminance" maskUnits="userSpaceOnUse" x="203" y="307" width="77" height="14">
<g id="433150159c">
<path id="Vector_11" d="M210.105 307.042H273.183C274.933 307.042 276.61 307.734 277.85 308.974C279.084 310.208 279.782 311.89 279.782 313.64C279.782 315.39 279.084 317.068 277.85 318.302C276.61 319.542 274.933 320.239 273.183 320.239H210.105C208.355 320.239 206.678 319.542 205.438 318.302C204.199 317.068 203.506 315.39 203.506 313.64C203.506 311.89 204.199 310.208 205.438 308.974C206.678 307.734 208.355 307.042 210.105 307.042Z" fill="white"/>
</g>
</mask>
<g mask="url(#mask8_2082_37)">
<g id="Group_10">
<g id="Group_11">
<g id="Clip path group_10">
<mask id="mask9_2082_37" style="mask-type:luminance" maskUnits="userSpaceOnUse" x="202" y="305" width="78" height="16">
<g id="0fcf90df53">
<path id="Vector_12" d="M279.985 305.719H202.651V320.385H279.985V305.719Z" fill="white"/>
</g>
</mask>
<g mask="url(#mask9_2082_37)">
<g id="Group_12">
<g id="Clip path group_11">
<mask id="mask10_2082_37" style="mask-type:luminance" maskUnits="userSpaceOnUse" x="203" y="307" width="77" height="14">
<g id="e1d8ba8bac">
<path id="Vector_13" d="M203.506 307.042H279.803V320.239H203.506V307.042Z" fill="white"/>
</g>
</mask>
<g mask="url(#mask10_2082_37)">
<g id="Group_13">
<g id="Clip path group_12">
<mask id="mask11_2082_37" style="mask-type:luminance" maskUnits="userSpaceOnUse" x="203" y="307" width="77" height="14">
<g id="37a8903998">
<path id="Vector_14" d="M210.105 307.042H273.183C274.933 307.042 276.61 307.734 277.85 308.974C279.084 310.208 279.782 311.89 279.782 313.64C279.782 315.39 279.084 317.068 277.85 318.302C276.61 319.542 274.933 320.239 273.183 320.239H210.105C208.355 320.239 206.678 319.542 205.438 318.302C204.199 317.068 203.506 315.39 203.506 313.64C203.506 311.89 204.199 310.208 205.438 308.974C206.678 307.734 208.355 307.042 210.105 307.042Z" fill="white"/>
</g>
</mask>
<g mask="url(#mask11_2082_37)">
<g id="Group_14">
<path id="Vector_15" d="M203.506 307.042H279.803V320.239H203.506V307.042Z" fill="#1C4587"/>
</g>
</g>
</g>
</g>
</g>
</g>
</g>
</g>
</g>
</g>
</g>
</g>
</g>
</g>
</g>
</g>
<g id="Clip path group_13">
<mask id="mask12_2082_37" style="mask-type:luminance" maskUnits="userSpaceOnUse" x="203" y="313" width="77" height="8">
<g id="8771438cd0">
<path id="Vector_16" d="M203.506 313.641H279.782V320.24H203.506V313.641Z" fill="white"/>
</g>
</mask>
<g mask="url(#mask12_2082_37)">
<g id="Group_15">
<g id="Group_16">
<g id="Clip path group_14">
<mask id="mask13_2082_37" style="mask-type:luminance" maskUnits="userSpaceOnUse" x="202" y="312" width="78" height="9">
<g id="da501e51f4">
<path id="Vector_17" d="M279.985 312.385H202.651V320.385H279.985V312.385Z" fill="white"/>
</g>
</mask>
<g mask="url(#mask13_2082_37)">
<g id="Group_17">
<g id="Clip path group_15">
<mask id="mask14_2082_37" style="mask-type:luminance" maskUnits="userSpaceOnUse" x="203" y="313" width="77" height="8">
<g id="cf962ce294">
<path id="Vector_18" d="M203.506 313.641H279.782V320.24H203.506V313.641Z" fill="white"/>
</g>
</mask>
<g mask="url(#mask14_2082_37)">
<g id="Group_18">
<path id="Vector_19" d="M203.506 313.641H279.777V320.24H203.506V313.641Z" fill="#1C4587"/>
</g>
</g>
</g>
</g>
</g>
</g>
</g>
</g>
</g>
</g>
<g id="Group_19">
<g id="Group_20">
<g id="Group_21">
<path id="Vector_20" d="M129.943 150.656C128.693 150.656 127.573 150.5 126.589 150.198C125.615 149.896 124.802 149.49 124.151 148.99C123.495 148.479 122.995 147.922 122.651 147.323L124.61 144.927H124.922C125.464 145.734 126.151 146.38 126.985 146.865C127.828 147.338 128.818 147.573 129.943 147.573C130.901 147.573 131.62 147.375 132.11 146.969C132.594 146.568 132.839 146.01 132.839 145.302C132.839 144.875 132.756 144.51 132.589 144.219C132.433 143.927 132.177 143.687 131.818 143.49C131.453 143.281 130.964 143.104 130.339 142.948L128.026 142.406C126.401 142.047 125.183 141.437 124.381 140.573C123.589 139.713 123.193 138.588 123.193 137.198C123.193 136.187 123.448 135.292 123.964 134.51C124.474 133.734 125.219 133.13 126.193 132.698C127.177 132.271 128.344 132.052 129.693 132.052C131.094 132.052 132.287 132.24 133.276 132.615C134.276 132.979 135.115 133.542 135.797 134.302L134.026 136.719H133.714C133.214 136.193 132.631 135.797 131.964 135.531C131.308 135.255 130.552 135.115 129.693 135.115C128.719 135.115 127.974 135.292 127.464 135.635C126.948 135.984 126.693 136.463 126.693 137.073C126.693 137.646 126.87 138.104 127.235 138.448C127.594 138.781 128.214 139.042 129.089 139.219L131.464 139.719C133.224 140.094 134.506 140.729 135.297 141.615C136.089 142.49 136.485 143.646 136.485 145.073C136.485 146.198 136.24 147.187 135.756 148.031C135.266 148.865 134.532 149.51 133.547 149.969C132.558 150.427 131.36 150.656 129.943 150.656Z" fill="white"/>
</g>
</g>
</g>
<g id="Group_22">
<g id="Group_23">
<g id="Group_24">
<path id="Vector_21" d="M139.651 151.135V133.052H147.36C148.469 133.052 149.412 133.229 150.193 133.573C150.969 133.922 151.552 134.422 151.943 135.073C152.344 135.729 152.547 136.49 152.547 137.365C152.547 138.172 152.349 138.88 151.964 139.49C151.573 140.104 151.011 140.588 150.276 140.948V141.219C151.412 141.51 152.287 142.052 152.901 142.844C153.526 143.625 153.839 144.583 153.839 145.719C153.839 147.458 153.318 148.797 152.276 149.74C151.235 150.672 149.683 151.135 147.631 151.135H139.651ZM146.631 140.26C148.297 140.26 149.131 139.51 149.131 138.01C149.131 137.25 148.922 136.677 148.506 136.302C148.089 135.927 147.464 135.74 146.631 135.74H143.214V140.26H146.631ZM147.276 148.302C149.245 148.302 150.235 147.406 150.235 145.615C150.235 143.823 149.245 142.927 147.276 142.927H143.214V148.302H147.276Z" fill="white"/>
</g>
</g>
</g>
<g id="Group_25">
<g id="Group_26">
<g id="Group_27">
<path id="Vector_22" d="M123.726 184.681C123.726 183.681 123.835 182.842 124.059 182.16C124.278 181.483 124.632 180.858 125.121 180.285C125.621 179.717 126.319 179.108 127.226 178.451L129.642 176.722C130.293 176.253 130.799 175.842 131.163 175.493C131.538 175.149 131.814 174.785 131.996 174.41C132.189 174.024 132.288 173.587 132.288 173.097C132.288 172.378 132.064 171.816 131.621 171.41C131.174 171.009 130.507 170.806 129.621 170.806C128.757 170.806 127.996 171.014 127.33 171.431C126.663 171.837 126.106 172.389 125.663 173.097L125.434 173.16L123.476 170.951C124.111 169.993 124.944 169.222 125.976 168.639C127.017 168.056 128.272 167.764 129.746 167.764C131.106 167.764 132.236 167.993 133.142 168.451C134.059 168.899 134.731 169.509 135.163 170.285C135.606 171.05 135.83 171.925 135.83 172.91C135.83 173.774 135.647 174.556 135.288 175.264C134.939 175.972 134.444 176.634 133.809 177.243C133.168 177.842 132.356 178.488 131.371 179.181L129.226 180.681C128.585 181.139 128.132 181.55 127.871 181.91C127.621 182.274 127.496 182.675 127.496 183.118H135.663V186.118H123.726V184.681Z" fill="white"/>
</g>
</g>
</g>
<g id="Group_28">
<g id="Group_29">
<g id="Group_30">
<path id="Vector_23" d="M145.795 186.368C144.321 186.368 143.035 186.045 141.941 185.389C140.842 184.738 139.988 183.722 139.378 182.347C138.779 180.962 138.482 179.201 138.482 177.076C138.482 174.951 138.779 173.201 139.378 171.826C139.988 170.441 140.842 169.42 141.941 168.764C143.035 168.097 144.321 167.764 145.795 167.764C147.279 167.764 148.566 168.097 149.649 168.764C150.743 169.42 151.592 170.441 152.191 171.826C152.8 173.201 153.107 174.951 153.107 177.076C153.107 179.201 152.8 180.962 152.191 182.347C151.592 183.722 150.743 184.738 149.649 185.389C148.566 186.045 147.279 186.368 145.795 186.368ZM145.795 183.347C146.597 183.347 147.274 183.155 147.816 182.764C148.368 182.378 148.795 181.722 149.087 180.806C149.378 179.878 149.524 178.634 149.524 177.076C149.524 175.524 149.378 174.285 149.087 173.368C148.795 172.441 148.368 171.78 147.816 171.389C147.274 171.003 146.597 170.806 145.795 170.806C144.988 170.806 144.305 171.003 143.753 171.389C143.212 171.78 142.795 172.441 142.503 173.368C142.212 174.285 142.066 175.524 142.066 177.076C142.066 178.634 142.212 179.878 142.503 180.806C142.795 181.722 143.212 182.378 143.753 182.764C144.305 183.155 144.988 183.347 145.795 183.347Z" fill="white"/>
</g>
</g>
</g>
<g id="Group_31">
<g id="Group_32">
<g id="Group_33">
<path id="Vector_24" d="M166.925 186.118H163.488V182.181H155.259V179.306L162.342 168.035H166.925V179.306H169.696V182.181H166.925V186.118ZM158.905 179.035L159.03 179.306H163.488V172.306L163.196 172.243L158.905 179.035Z" fill="white"/>
</g>
</g>
</g>
<g id="Group_34">
<g id="Group_35">
<g id="Group_36">
<path id="Vector_25" d="M157.299 149.68C157.299 148.68 157.408 147.842 157.632 147.16C157.851 146.482 158.205 145.857 158.695 145.285C159.195 144.717 159.893 144.107 160.799 143.451L163.215 141.722C163.867 141.253 164.372 140.842 164.736 140.493C165.111 140.149 165.387 139.785 165.57 139.41C165.762 139.024 165.861 138.587 165.861 138.097C165.861 137.378 165.637 136.816 165.195 136.41C164.747 136.008 164.08 135.805 163.195 135.805C162.33 135.805 161.57 136.014 160.903 136.43C160.236 136.837 159.679 137.389 159.236 138.097L159.007 138.16L157.049 135.951C157.684 134.993 158.518 134.222 159.549 133.639C160.59 133.055 161.846 132.764 163.32 132.764C164.679 132.764 165.809 132.993 166.715 133.451C167.632 133.899 168.304 134.508 168.736 135.285C169.179 136.05 169.403 136.925 169.403 137.91C169.403 138.774 169.221 139.555 168.861 140.264C168.512 140.972 168.018 141.633 167.382 142.243C166.742 142.842 165.929 143.488 164.945 144.18L162.799 145.68C162.158 146.139 161.705 146.55 161.445 146.91C161.195 147.274 161.07 147.675 161.07 148.118H169.236V151.118H157.299V149.68Z" fill="white"/>
</g>
</g>
</g>
</g>
</svg>
