<svg width="294" height="321" viewBox="0 0 294 321" fill="none" xmlns="http://www.w3.org/2000/svg">
<g id="SB2-202">
<g id="Clip path group">
<mask id="mask0_2082_35" style="mask-type:luminance" maskUnits="userSpaceOnUse" x="0" y="0" width="294" height="321">
<g id="8ba66763fc">
<path id="Vector" d="M0 0H293.271V320.385H0V0Z" fill="white"/>
</g>
</mask>
<g mask="url(#mask0_2082_35)">
<g id="Group">
<g id="Clip path group_2">
<mask id="mask1_2082_35" style="mask-type:luminance" maskUnits="userSpaceOnUse" x="0" y="0" width="294" height="321">
<g id="e17d74871a">
<path id="Vector_2" d="M7 0H286.271C290.135 0 293.271 3.13021 293.271 7V313.24C293.271 317.104 290.135 320.24 286.271 320.24H7C3.13542 320.24 0 317.104 0 313.24V7C0 3.13021 3.13542 0 7 0Z" fill="white"/>
</g>
</mask>
<g mask="url(#mask1_2082_35)">
<g id="Group_2">
<g id="Group_3">
<g id="Clip path group_3">
<mask id="mask2_2082_35" style="mask-type:luminance" maskUnits="userSpaceOnUse" x="-1" y="-1" width="295" height="322">
<g id="11bd1556db">
<path id="Vector_3" d="M293.958 -0.947998H-0.708496V320.385H293.958V-0.947998Z" fill="white"/>
</g>
</mask>
<g mask="url(#mask2_2082_35)">
<g id="Group_4">
<g id="Clip path group_4">
<mask id="mask3_2082_35" style="mask-type:luminance" maskUnits="userSpaceOnUse" x="0" y="0" width="294" height="321">
<g id="c37f92ee98">
<path id="Vector_4" d="M0 0H293.271V320.385H0V0Z" fill="white"/>
</g>
</mask>
<g mask="url(#mask3_2082_35)">
<g id="Group_5">
<g id="Clip path group_5">
<mask id="mask4_2082_35" style="mask-type:luminance" maskUnits="userSpaceOnUse" x="0" y="0" width="294" height="321">
<g id="cc13acd9aa">
<path id="Vector_5" d="M7 0H286.271C290.135 0 293.271 3.13021 293.271 7V313.24C293.271 317.104 290.135 320.24 286.271 320.24H7C3.13542 320.24 0 317.104 0 313.24V7C0 3.13021 3.13542 0 7 0Z" fill="white"/>
</g>
</mask>
<g mask="url(#mask4_2082_35)">
<g id="Group_6">
<path id="Vector_6" d="M0 0H293.271V320.76H0V0Z" fill="#4A6FB1"/>
</g>
</g>
</g>
</g>
</g>
</g>
</g>
</g>
</g>
</g>
</g>
</g>
</g>
</g>
</g>
</g>
<g id="Clip path group_6">
<mask id="mask5_2082_35" style="mask-type:luminance" maskUnits="userSpaceOnUse" x="0" y="0" width="293" height="320">
<g id="4eafa1d7a4">
<path id="Vector_7" d="M0 0H293V320H0V0Z" fill="white"/>
</g>
</mask>
<g mask="url(#mask5_2082_35)">
<g id="Group_7">
<g id="Clip path group_7">
<mask id="mask6_2082_35" style="mask-type:luminance" maskUnits="userSpaceOnUse" x="0" y="0" width="294" height="321">
<g id="a706e00a5c">
<path id="Vector_8" d="M7 0H286.266C290.135 0 293.266 3.13021 293.266 7V313.234C293.266 317.099 290.135 320.234 286.266 320.234H7C3.13542 320.234 0 317.099 0 313.234V7C0 3.13021 3.13542 0 7 0Z" fill="white"/>
</g>
</mask>
<g mask="url(#mask6_2082_35)">
<g id="Group_8">
<path id="Vector_9" d="M7 0H286.266C290.135 0 293.266 3.13021 293.266 7V313.234C293.266 317.099 290.135 320.234 286.266 320.234H7C3.13542 320.234 0 317.099 0 313.234V7C0 3.13021 3.13542 0 7 0Z" stroke="#122C55" stroke-width="8"/>
</g>
</g>
</g>
</g>
</g>
</g>
<g id="Clip path group_8">
<mask id="mask7_2082_35" style="mask-type:luminance" maskUnits="userSpaceOnUse" x="203" y="307" width="77" height="14">
<g id="0e1a556e7d">
<path id="Vector_10" d="M203.505 307.042H279.802V320.239H203.505V307.042Z" fill="white"/>
</g>
</mask>
<g mask="url(#mask7_2082_35)">
<g id="Group_9">
<g id="Clip path group_9">
<mask id="mask8_2082_35" style="mask-type:luminance" maskUnits="userSpaceOnUse" x="203" y="307" width="77" height="14">
<g id="e3593ff22e">
<path id="Vector_11" d="M210.104 307.042H273.188C274.938 307.042 276.615 307.734 277.854 308.974C279.089 310.208 279.787 311.89 279.787 313.64C279.787 315.39 279.089 317.068 277.854 318.302C276.615 319.542 274.938 320.239 273.188 320.239H210.104C208.354 320.239 206.677 319.542 205.443 318.302C204.203 317.068 203.505 315.39 203.505 313.64C203.505 311.89 204.203 310.208 205.443 308.974C206.677 307.734 208.354 307.042 210.104 307.042Z" fill="white"/>
</g>
</mask>
<g mask="url(#mask8_2082_35)">
<g id="Group_10">
<g id="Group_11">
<g id="Clip path group_10">
<mask id="mask9_2082_35" style="mask-type:luminance" maskUnits="userSpaceOnUse" x="203" y="305" width="78" height="16">
<g id="e652c201e9">
<path id="Vector_12" d="M280.625 305.719H203.292V320.385H280.625V305.719Z" fill="white"/>
</g>
</mask>
<g mask="url(#mask9_2082_35)">
<g id="Group_12">
<g id="Clip path group_11">
<mask id="mask10_2082_35" style="mask-type:luminance" maskUnits="userSpaceOnUse" x="203" y="307" width="77" height="14">
<g id="001e592d17">
<path id="Vector_13" d="M203.505 307.042H279.802V320.239H203.505V307.042Z" fill="white"/>
</g>
</mask>
<g mask="url(#mask10_2082_35)">
<g id="Group_13">
<g id="Clip path group_12">
<mask id="mask11_2082_35" style="mask-type:luminance" maskUnits="userSpaceOnUse" x="203" y="307" width="77" height="14">
<g id="e8b728a966">
<path id="Vector_14" d="M210.104 307.042H273.188C274.938 307.042 276.615 307.734 277.854 308.974C279.089 310.208 279.787 311.89 279.787 313.64C279.787 315.39 279.089 317.068 277.854 318.302C276.615 319.542 274.938 320.239 273.188 320.239H210.104C208.354 320.239 206.677 319.542 205.443 318.302C204.203 317.068 203.505 315.39 203.505 313.64C203.505 311.89 204.203 310.208 205.443 308.974C206.677 307.734 208.354 307.042 210.104 307.042Z" fill="white"/>
</g>
</mask>
<g mask="url(#mask11_2082_35)">
<g id="Group_14">
<path id="Vector_15" d="M203.505 307.042H279.802V320.239H203.505V307.042Z" fill="#1C4587"/>
</g>
</g>
</g>
</g>
</g>
</g>
</g>
</g>
</g>
</g>
</g>
</g>
</g>
</g>
</g>
</g>
<g id="Clip path group_13">
<mask id="mask12_2082_35" style="mask-type:luminance" maskUnits="userSpaceOnUse" x="203" y="313" width="77" height="8">
<g id="aa48f12946">
<path id="Vector_16" d="M203.505 313.641H279.787V320.24H203.505V313.641Z" fill="white"/>
</g>
</mask>
<g mask="url(#mask12_2082_35)">
<g id="Group_15">
<g id="Group_16">
<g id="Clip path group_14">
<mask id="mask13_2082_35" style="mask-type:luminance" maskUnits="userSpaceOnUse" x="203" y="312" width="78" height="9">
<g id="c2eb0c8d42">
<path id="Vector_17" d="M280.625 312.385H203.292V320.385H280.625V312.385Z" fill="white"/>
</g>
</mask>
<g mask="url(#mask13_2082_35)">
<g id="Group_17">
<g id="Clip path group_15">
<mask id="mask14_2082_35" style="mask-type:luminance" maskUnits="userSpaceOnUse" x="203" y="313" width="77" height="8">
<g id="be5fc03f9d">
<path id="Vector_18" d="M203.505 313.641H279.787V320.24H203.505V313.641Z" fill="white"/>
</g>
</mask>
<g mask="url(#mask14_2082_35)">
<g id="Group_18">
<path id="Vector_19" d="M203.505 313.641H279.781V320.24H203.505V313.641Z" fill="#1C4587"/>
</g>
</g>
</g>
</g>
</g>
</g>
</g>
</g>
</g>
</g>
<g id="Group_19">
<g id="Group_20">
<g id="Group_21">
<path id="Vector_20" d="M131.359 151.368C130.109 151.368 128.989 151.212 128.004 150.91C127.03 150.607 126.218 150.201 125.567 149.701C124.911 149.191 124.411 148.633 124.067 148.035L126.025 145.639H126.338C126.879 146.446 127.567 147.092 128.4 147.576C129.244 148.05 130.234 148.285 131.359 148.285C132.317 148.285 133.036 148.087 133.525 147.68C134.01 147.279 134.254 146.722 134.254 146.014C134.254 145.587 134.171 145.222 134.004 144.93C133.848 144.639 133.593 144.399 133.234 144.201C132.869 143.993 132.379 143.816 131.754 143.66L129.442 143.118C127.817 142.758 126.598 142.149 125.796 141.285C125.004 140.425 124.609 139.3 124.609 137.91C124.609 136.899 124.864 136.003 125.379 135.222C125.89 134.446 126.635 133.842 127.609 133.41C128.593 132.982 129.76 132.764 131.109 132.764C132.51 132.764 133.702 132.951 134.692 133.326C135.692 133.691 136.53 134.253 137.213 135.014L135.442 137.43H135.129C134.629 136.904 134.046 136.508 133.379 136.243C132.723 135.967 131.968 135.826 131.109 135.826C130.135 135.826 129.39 136.003 128.879 136.347C128.364 136.696 128.109 137.175 128.109 137.785C128.109 138.357 128.286 138.816 128.65 139.16C129.01 139.493 129.629 139.753 130.504 139.93L132.879 140.43C134.64 140.805 135.921 141.441 136.713 142.326C137.504 143.201 137.9 144.357 137.9 145.785C137.9 146.91 137.655 147.899 137.171 148.743C136.681 149.576 135.947 150.222 134.963 150.68C133.973 151.139 132.775 151.368 131.359 151.368Z" fill="white"/>
</g>
</g>
</g>
<g id="Group_22">
<g id="Group_23">
<g id="Group_24">
<path id="Vector_21" d="M141.225 151.118V133.035H148.933C150.043 133.035 150.986 133.212 151.767 133.556C152.543 133.904 153.126 134.404 153.517 135.056C153.918 135.712 154.121 136.472 154.121 137.347C154.121 138.154 153.923 138.863 153.538 139.472C153.147 140.087 152.584 140.571 151.85 140.931V141.201C152.986 141.493 153.861 142.035 154.475 142.826C155.1 143.608 155.413 144.566 155.413 145.701C155.413 147.441 154.892 148.779 153.85 149.722C152.808 150.654 151.256 151.118 149.204 151.118H141.225ZM148.204 140.243C149.871 140.243 150.704 139.493 150.704 137.993C150.704 137.233 150.496 136.66 150.079 136.285C149.663 135.91 149.038 135.722 148.204 135.722H144.788V140.243H148.204ZM148.85 148.285C150.819 148.285 151.808 147.389 151.808 145.597C151.808 143.806 150.819 142.91 148.85 142.91H144.788V148.285H148.85Z" fill="white"/>
</g>
</g>
</g>
<g id="Group_25">
<g id="Group_26">
<g id="Group_27">
<path id="Vector_22" d="M124.556 184.681C124.556 183.681 124.666 182.842 124.889 182.16C125.108 181.483 125.462 180.858 125.952 180.285C126.452 179.717 127.15 179.108 128.056 178.451L130.473 176.722C131.124 176.253 131.629 175.842 131.994 175.493C132.369 175.149 132.645 174.785 132.827 174.41C133.02 174.024 133.119 173.587 133.119 173.097C133.119 172.378 132.895 171.816 132.452 171.41C132.004 171.009 131.337 170.806 130.452 170.806C129.587 170.806 128.827 171.014 128.16 171.431C127.494 171.837 126.936 172.389 126.494 173.097L126.264 173.16L124.306 170.951C124.942 169.993 125.775 169.222 126.806 168.639C127.848 168.056 129.103 167.764 130.577 167.764C131.936 167.764 133.067 167.993 133.973 168.451C134.889 168.899 135.561 169.509 135.994 170.285C136.436 171.05 136.66 171.925 136.66 172.91C136.66 173.774 136.478 174.556 136.119 175.264C135.77 175.972 135.275 176.634 134.639 177.243C133.999 177.842 133.186 178.488 132.202 179.181L130.056 180.681C129.416 181.139 128.962 181.55 128.702 181.91C128.452 182.274 128.327 182.675 128.327 183.118H136.494V186.118H124.556V184.681Z" fill="white"/>
</g>
</g>
</g>
<g id="Group_28">
<g id="Group_29">
<g id="Group_30">
<path id="Vector_23" d="M146.625 186.368C145.152 186.368 143.865 186.045 142.771 185.389C141.672 184.738 140.818 183.722 140.209 182.347C139.61 180.962 139.313 179.201 139.313 177.076C139.313 174.951 139.61 173.201 140.209 171.826C140.818 170.441 141.672 169.42 142.771 168.764C143.865 168.097 145.152 167.764 146.625 167.764C148.11 167.764 149.396 168.097 150.48 168.764C151.573 169.42 152.422 170.441 153.021 171.826C153.631 173.201 153.938 174.951 153.938 177.076C153.938 179.201 153.631 180.962 153.021 182.347C152.422 183.722 151.573 184.738 150.48 185.389C149.396 186.045 148.11 186.368 146.625 186.368ZM146.625 183.347C147.428 183.347 148.105 183.155 148.646 182.764C149.198 182.378 149.625 181.722 149.917 180.806C150.209 179.878 150.355 178.634 150.355 177.076C150.355 175.524 150.209 174.285 149.917 173.368C149.625 172.441 149.198 171.78 148.646 171.389C148.105 171.003 147.428 170.806 146.625 170.806C145.818 170.806 145.136 171.003 144.584 171.389C144.042 171.78 143.625 172.441 143.334 173.368C143.042 174.285 142.896 175.524 142.896 177.076C142.896 178.634 143.042 179.878 143.334 180.806C143.625 181.722 144.042 182.378 144.584 182.764C145.136 183.155 145.818 183.347 146.625 183.347Z" fill="white"/>
</g>
</g>
</g>
<g id="Group_31">
<g id="Group_32">
<g id="Group_33">
<path id="Vector_24" d="M156.34 184.681C156.34 183.681 156.45 182.842 156.674 182.16C156.892 181.483 157.247 180.858 157.736 180.285C158.236 179.717 158.934 179.108 159.84 178.451L162.257 176.722C162.908 176.253 163.413 175.842 163.778 175.493C164.153 175.149 164.429 174.785 164.611 174.41C164.804 174.024 164.903 173.587 164.903 173.097C164.903 172.378 164.679 171.816 164.236 171.41C163.788 171.009 163.122 170.806 162.236 170.806C161.372 170.806 160.611 171.014 159.944 171.431C159.278 171.837 158.721 172.389 158.278 173.097L158.049 173.16L156.09 170.951C156.726 169.993 157.559 169.222 158.59 168.639C159.632 168.056 160.887 167.764 162.361 167.764C163.721 167.764 164.851 167.993 165.757 168.451C166.674 168.899 167.346 169.509 167.778 170.285C168.221 171.05 168.444 171.925 168.444 172.91C168.444 173.774 168.262 174.556 167.903 175.264C167.554 175.972 167.059 176.634 166.424 177.243C165.783 177.842 164.971 178.488 163.986 179.181L161.84 180.681C161.2 181.139 160.747 181.55 160.486 181.91C160.236 182.274 160.111 182.675 160.111 183.118H168.278V186.118H156.34V184.681Z" fill="white"/>
</g>
</g>
</g>
<g id="Group_34">
<g id="Group_35">
<g id="Group_36">
<path id="Vector_25" d="M156.606 149.68C156.606 148.68 156.715 147.842 156.939 147.16C157.158 146.482 157.512 145.857 158.002 145.285C158.502 144.717 159.2 144.107 160.106 143.451L162.523 141.722C163.174 141.253 163.679 140.842 164.043 140.493C164.418 140.149 164.694 139.785 164.877 139.41C165.069 139.024 165.168 138.587 165.168 138.097C165.168 137.378 164.944 136.816 164.502 136.41C164.054 136.008 163.387 135.805 162.502 135.805C161.637 135.805 160.877 136.014 160.21 136.43C159.543 136.837 158.986 137.389 158.543 138.097L158.314 138.16L156.356 135.951C156.991 134.993 157.825 134.222 158.856 133.639C159.898 133.055 161.153 132.764 162.627 132.764C163.986 132.764 165.116 132.993 166.023 133.451C166.939 133.899 167.611 134.508 168.043 135.285C168.486 136.05 168.71 136.925 168.71 137.91C168.71 138.774 168.528 139.555 168.168 140.264C167.819 140.972 167.325 141.633 166.689 142.243C166.049 142.842 165.236 143.488 164.252 144.18L162.106 145.68C161.465 146.139 161.012 146.55 160.752 146.91C160.502 147.274 160.377 147.675 160.377 148.118H168.543V151.118H156.606V149.68Z" fill="white"/>
</g>
</g>
</g>
</g>
</svg>
